<?xml version="1.0" encoding="UTF-8" standalone="no"?><!DOCTYPE svg PUBLIC "-//W3C//DTD SVG 1.1//EN" "http://www.w3.org/Graphics/SVG/1.1/DTD/svg11.dtd"><svg width="100%" height="100%" viewBox="0 0 80 233" version="1.1" xmlns="http://www.w3.org/2000/svg" xmlns:xlink="http://www.w3.org/1999/xlink" xml:space="preserve" style="fill-rule:evenodd;clip-rule:evenodd;stroke-linejoin:round;stroke-miterlimit:1.41421;"><clipPath id="_clip1"><rect id="Artboard1" x="0" y="0" width="80" height="233"/></clipPath><g clip-path="url(#_clip1)"><g id="Alien_Landing"><path d="M53.2,232.48c-5.676,-0.005 -10.345,-4.674 -10.35,-10.35l0,-77.43c0.003,-0.056 0.005,-0.113 0.005,-0.169c0,-1.569 -1.291,-2.86 -2.86,-2.86c-1.569,0 -2.86,1.291 -2.86,2.86c0,0.056 0.002,0.113 0.005,0.169l0,77.44c0.003,0.107 0.005,0.214 0.005,0.322c0,5.678 -4.672,10.35 -10.35,10.35c-5.678,0 -10.35,-4.672 -10.35,-10.35c0,-0.108 0.002,-0.215 0.005,-0.322l0,-48.56c-1.759,2.154 -4.398,3.407 -7.18,3.407c-5.085,0 -9.27,-4.185 -9.27,-9.27c0,-0.003 0,-0.005 0,-0.007l0,-61.84c0.011,-12.827 10.563,-23.379 23.39,-23.39l33.23,0c12.823,0.016 23.369,10.567 23.38,23.39l0,61.84c0,0.002 0,0.004 0,0.007c0,5.085 -4.185,9.27 -9.27,9.27c-2.782,0 -5.421,-1.253 -7.18,-3.407l0,48.56c-0.011,5.672 -4.678,10.335 -10.35,10.34Z" style="fill:#f04d8b;fill-rule:nonzero;"/><circle cx="40" cy="53.59" r="37.5" style="fill:#f04d8b;"/><circle cx="40" cy="53.59" r="25" style="fill:#cafeff;"/><path d="M24.718,58.27c0.966,-2.04 4.201,-2.536 7.218,-1.106c3.018,1.43 4.683,4.247 3.717,6.287c-0.967,2.04 -4.201,2.535 -7.219,1.105c-3.017,-1.429 -4.683,-4.246 -3.716,-6.286Z" style="fill:#5d48a1;"/><path d="M48.057,57.162c3.017,-1.43 6.252,-0.934 7.218,1.106c0.967,2.04 -0.699,4.856 -3.716,6.286c-3.018,1.43 -6.252,0.934 -7.219,-1.106c-0.966,-2.04 0.699,-4.857 3.717,-6.286Z" style="fill:#5d48a1;"/><rect x="36.75" y="3.01" width="6.5" height="85" style="fill:#cafeff;"/><circle cx="40" cy="8.25" r="7.5" style="fill:#cafeff;"/><path d="M5,105.87l0,61.84c0,2.342 1.928,4.27 4.27,4.27c2.342,0 4.27,-1.928 4.27,-4.27l0,-48.06c0,-2.194 1.806,-4 4,-4c2.194,0 4,1.806 4,4l0,102.49c0,2.935 2.415,5.35 5.35,5.35c2.935,0 5.35,-2.415 5.35,-5.35l0,-77.44c0,-4.312 3.548,-7.86 7.86,-7.86c4.312,0 7.86,3.548 7.86,7.86l0,77.44c0,2.935 2.415,5.35 5.35,5.35c2.935,0 5.35,-2.415 5.35,-5.35l0,-102.49c0,-2.194 1.806,-4 4,-4c2.194,0 4,1.806 4,4l0,48.06c0,2.342 1.928,4.27 4.27,4.27c2.342,0 4.27,-1.928 4.27,-4.27l0,-61.84c0,-10.088 -8.302,-18.39 -18.39,-18.39l-33.42,0c-10.088,0 -18.39,8.302 -18.39,18.39l0,0Z" style="fill:#cafeff;fill-rule:nonzero;"/></g></g></svg>