<?xml version="1.0" encoding="UTF-8" standalone="no"?><!DOCTYPE svg PUBLIC "-//W3C//DTD SVG 1.1//EN" "http://www.w3.org/Graphics/SVG/1.1/DTD/svg11.dtd"><svg width="100%" height="100%" viewBox="0 0 110 342" version="1.1" xmlns="http://www.w3.org/2000/svg" xmlns:xlink="http://www.w3.org/1999/xlink" xml:space="preserve" style="fill-rule:evenodd;clip-rule:evenodd;stroke-linejoin:round;stroke-miterlimit:1.41421;"><clipPath id="_clip1"><rect id="alien_comet" x="0" y="0" width="110" height="342"/></clipPath><g clip-path="url(#_clip1)"><g id="Alien_Comet"><path d="M55,341.12c-30.16,-0.033 -54.967,-24.84 -55,-55l0,-216.32c0,-7.68 6.32,-14 14,-14c7.68,0 14,6.32 14,14l0,117.2c0,3.292 2.708,6 6,6c3.292,0 6,-2.708 6,-6l0,-67.27c0,-8.229 6.771,-15 15,-15c8.229,0 15,6.771 15,15l0,43.83c0,3.292 2.708,6 6,6c3.292,0 6,-2.708 6,-6l0,-148.43c0,-7.68 6.32,-14 14,-14c7.68,0 14,6.32 14,14l0,271c-0.038,30.156 -24.844,54.957 -55,54.99Z" style="fill:#3ec2bf;fill-rule:nonzero;"/><path d="M87,31.13l0,146.44c0,6.034 -4.966,11 -11,11c-6.034,0 -11,-4.966 -11,-11l0,-45.83c0,-5.486 -4.514,-10 -10,-10c-5.486,0 -10,4.514 -10,10l0,84.26c0,6.034 -4.966,11 -11,11c-6.034,0 -11,-4.966 -11,-11l0,-137.2c0,-4.937 -4.063,-9 -9,-9c-4.937,0 -9,4.063 -9,9l0,207.31c0,27.429 22.571,50 50,50c27.429,0 50,-22.571 50,-50l0,-255c0,-4.937 -4.063,-9 -9,-9c0,0 0,0 0,0c-4.937,0 -9,4.063 -9,9c0,0.007 0,0.013 0,0.02Z" style="fill:#65e0de;fill-rule:nonzero;"/><circle cx="55" cy="284.4" r="37.5" style="fill:#f04d8b;"/><circle cx="55" cy="284.4" r="25" style="fill:#cafeff;"/><path d="M39.723,289.072c0.967,-2.04 4.201,-2.535 7.219,-1.106c3.018,1.43 4.683,4.247 3.716,6.287c-0.966,2.04 -4.201,2.535 -7.218,1.105c-3.018,-1.429 -4.683,-4.246 -3.717,-6.286Z" style="fill:#5d48a1;"/><path d="M63.059,287.977c3.017,-1.429 6.252,-0.934 7.218,1.106c0.967,2.04 -0.699,4.857 -3.716,6.287c-3.018,1.429 -6.252,0.934 -7.219,-1.106c-0.966,-2.04 0.699,-4.857 3.717,-6.287Z" style="fill:#5d48a1;"/></g></g></svg>