<?xml version="1.0"?>
<svg xmlns="http://www.w3.org/2000/svg" xmlns:xlink="http://www.w3.org/1999/xlink" viewBox="0 0 800 4400">
<defs>
    <style>.cls-1,.cls-2{fill:none;}.cls-2,.cls-35{clip-path:url(#clip-path);}.cls-3{isolation:isolate;}.cls-4{fill:url(#linear-gradient);}.cls-5{clip-path:url(#clip-path-2);}.cls-6{fill:#8d6fd9;}.cls-7{fill:#8b78e8;}.cls-8{fill:#7063c2;}.cls-9{fill:#7253ad;}.cls-10{fill:#634e96;}.cls-11{fill:url(#linear-gradient-2);}.cls-12{fill:#7159ab;}.cls-13{clip-path:url(#clip-path-3);}.cls-14{fill:#618bff;}.cls-14,.cls-15{opacity:0.5;}.cls-16{fill:#b5d2ff;}.cls-16,.cls-17{opacity:0.48;mix-blend-mode:screen;}.cls-17,.cls-29{fill:#3ec2bf;}.cls-18{fill:url(#linear-gradient-3);}.cls-19{fill:url(#linear-gradient-4);}.cls-20{fill:url(#linear-gradient-5);}.cls-21{fill:url(#linear-gradient-6);}.cls-22{fill:url(#linear-gradient-7);}.cls-23{fill:url(#linear-gradient-8);}.cls-24{fill:url(#linear-gradient-9);}.cls-25{fill:url(#linear-gradient-10);}.cls-26,.cls-27{fill:#fff;}.cls-26{opacity:0.26;}.cls-27{opacity:0.54;}.cls-28{clip-path:url(#clip-path-4);}.cls-30{clip-path:url(#clip-path-5);}.cls-31{fill:#db2e73;}.cls-32{fill:#e63b80;}.cls-33{fill:#ed478b;}.cls-34{fill:#f05b98;}.cls-36{fill:#65e0de;}.cls-37{fill:#eb4683;}.cls-38{fill:#cc336b;}.cls-39{clip-path:url(#clip-path-7);}.cls-40{fill:#ff9e75;}.cls-41{fill:#ffb2a1;}.cls-42{fill:#fa8a6e;}.cls-43{fill:#ffd591;}.cls-44{fill:#fc7574;}.cls-45{fill:#f04d8b;}.cls-46{fill:#cafeff;}.cls-47{fill:#5d48a1;}.cls-48{fill:#f8ce82;}</style>
    <clipPath id="clip-path">
        <circle class="cls-1" cx="679.65" cy="345.29" r="65" transform="translate(113.23 855.51) rotate(-68.94)"/>
    </clipPath>
    <linearGradient id="linear-gradient" x1="400" y1="17.43" x2="400" y2="3660.52" gradientUnits="userSpaceOnUse">
        <stop offset="0" stop-color="#493466"/>
        <stop offset="0.02" stop-color="#4b366c"/>
        <stop offset="0.17" stop-color="#5e49a3"/>
        <stop offset="0.23" stop-color="#606fce"/>
        <stop offset="0.3" stop-color="#639aff"/>
        <stop offset="0.73" stop-color="#7ebbff"/>
        <stop offset="0.75" stop-color="#81b4fc"/>
        <stop offset="0.85" stop-color="#8f96f1"/>
        <stop offset="0.94" stop-color="#9884ea"/>
        <stop offset="1" stop-color="#9b7de8"/>
    </linearGradient>
    <clipPath id="clip-path-2">
        <rect class="cls-1" y="2719.83" width="800" height="1680.17"/>
    </clipPath>
    <linearGradient id="linear-gradient-2" x1="408.15" y1="3047.3" x2="408.15" y2="2727.78" gradientUnits="userSpaceOnUse">
        <stop offset="0" stop-color="#7c5ac9"/>
        <stop offset="0.49" stop-color="#6f85e2"/>
        <stop offset="1" stop-color="#61b7ff"/>
    </linearGradient>
    <clipPath id="clip-path-3">
        <rect class="cls-1" y="660.91" width="800" height="2173.11"/>
    </clipPath>
    <linearGradient id="linear-gradient-3" x1="139.89" y1="2030.29" x2="139.89" y2="2763.71" gradientUnits="userSpaceOnUse">
        <stop offset="0" stop-color="#4951a3"/>
        <stop offset="0.34" stop-color="#5573ce"/>
        <stop offset="0.69" stop-color="#639aff"/>
        <stop offset="1" stop-color="#8ccbff" stop-opacity="0"/>
    </linearGradient>
    <linearGradient id="linear-gradient-4" x1="275.9" y1="2130.87" x2="275.9" y2="2765.35" xlink:href="#linear-gradient-3"/>
    <linearGradient id="linear-gradient-5" x1="522.79" y1="2085.02" x2="522.79" y2="2764.6" gradientUnits="userSpaceOnUse">
        <stop offset="0" stop-color="#515ab5"/>
        <stop offset="0.33" stop-color="#6385d7"/>
        <stop offset="0.68" stop-color="#78b9ff"/>
        <stop offset="1" stop-color="#8ccbff" stop-opacity="0"/>
    </linearGradient>
    <linearGradient id="linear-gradient-6" x1="618.11" y1="2171.68" x2="618.11" y2="2766.01" xlink:href="#linear-gradient-5"/>
    <linearGradient id="linear-gradient-7" x1="576.9" y1="2367.48" x2="576.9" y2="2765.22" gradientUnits="userSpaceOnUse">
        <stop offset="0" stop-color="#4951a3"/>
        <stop offset="0.09" stop-color="#4c5aae"/>
        <stop offset="0.25" stop-color="#5471cb"/>
        <stop offset="0.46" stop-color="#6297fb"/>
        <stop offset="0.48" stop-color="#639aff"/>
        <stop offset="1" stop-color="#8ccbff" stop-opacity="0"/>
    </linearGradient>
    <linearGradient id="linear-gradient-8" x1="754.3" y1="2009.02" x2="754.3" y2="2763.37" xlink:href="#linear-gradient-5"/>
    <linearGradient id="linear-gradient-9" x1="44.37" y1="2216.66" x2="44.37" y2="2766.75" gradientUnits="userSpaceOnUse">
        <stop offset="0" stop-color="#4951a3"/>
        <stop offset="0.29" stop-color="#5573ce"/>
        <stop offset="0.58" stop-color="#639aff"/>
        <stop offset="1" stop-color="#8ccbff" stop-opacity="0"/>
    </linearGradient>
    <linearGradient id="linear-gradient-10" x1="216.18" y1="2292.24" x2="216.18" y2="2766.66" gradientUnits="userSpaceOnUse">
        <stop offset="0" stop-color="#4951a3"/>
        <stop offset="0.02" stop-color="#4a55a8"/>
        <stop offset="0.28" stop-color="#587ad7"/>
        <stop offset="0.47" stop-color="#6091f4"/>
        <stop offset="0.58" stop-color="#639aff"/>
        <stop offset="1" stop-color="#8ccbff" stop-opacity="0"/>
    </linearGradient>
    <clipPath id="clip-path-4">
        <rect class="cls-1" width="800" height="647.67"/>
    </clipPath>
    <clipPath id="clip-path-5">
        <circle class="cls-1" cx="650.24" cy="168.43" r="182.5" transform="translate(-12.92 275.18) rotate(-23.67)"/>
    </clipPath>
    <clipPath id="clip-path-7">
        <circle class="cls-1" cx="139.15" cy="192.49" r="110" transform="translate(-58.32 60.5) rotate(-20.38)"/>
    </clipPath>
</defs>
<title>space-scrolling-bg-final</title>
<g class="cls-3">
    <g id="Scrolling_BG" data-name="Scrolling BG">
        <rect id="Background_Gradient" data-name="Background Gradient" class="cls-4" width="800" height="4400"/>
        <g id="Forest_Ground" data-name="Forest &amp; Ground">
            <g class="cls-5">
                <g id="forest">
                    <g id="bushes">
                        <path class="cls-6" d="M804.25,3763.87a86.25,86.25,0,0,0-152.88-77,94.54,94.54,0,0,0-30-24.65A67.31,67.31,0,1,0,491.48,3696a66,66,0,0,0-108,72.21,116.73,116.73,0,0,0-41-7.39,117.93,117.93,0,0,0-17.44,1.3,136.09,136.09,0,0,0-25.17-19.94,42.54,42.54,0,1,0-76.5-37.18,83.22,83.22,0,0,0-133.89,26.55,146.6,146.6,0,0,0-22.39-7.62,43.5,43.5,0,1,0-59.18-2.72,147.75,147.75,0,1,0,135.56,241.57,135.59,135.59,0,0,0,142.83,17.67,117.05,117.05,0,0,0,130.87-12.59A106.6,106.6,0,0,0,520.67,3955,141,141,0,0,0,702.86,3965,114.75,114.75,0,1,0,804.25,3763.87Z"/>
                        <circle class="cls-6" cx="340.45" cy="3678.77" r="22.5"/>
                        <circle class="cls-6" cx="285.71" cy="3603.02" r="29.25"/>
                        <circle class="cls-6" cx="341.2" cy="3532.53" r="8.25"/>
                        <circle class="cls-6" cx="608.94" cy="3581.28" r="19.5"/>
                        <circle class="cls-6" cx="760.43" cy="3557.28" r="25.5"/>
                        <circle class="cls-6" cx="763.43" cy="3506.28" r="10.5"/>
                        <circle class="cls-6" cx="266.96" cy="3555.78" r="10.5"/>
                        <circle class="cls-6" cx="57.72" cy="3618.02" r="8.25"/>
                    </g>
                    <path id="ground" class="cls-7" d="M800,4400H0V3955.19a735.22,735.22,0,0,0,193.46,14.56c148.71-8.71,209.45-58.92,333-67.5,63.12-4.38,156.25,1.16,273.56,52.93V4400Z"/>
                    <g id="trees">
                        <g id="tree_trunks" data-name="tree trunks">
                            <polygon class="cls-7" points="24.79 2992.79 -10.21 2992.79 -30.21 4174.79 44.79 4174.79 24.79 2992.79"/>
                            <path class="cls-7" d="M15.8,3308.34a9.92,9.92,0,0,1,0-19.85c15.89,0,33.12-23.19,46.08-62,14.48-43.39,22.46-101.33,22.46-163.15a9.92,9.92,0,1,1,19.85,0c0,63.89-8.34,124.06-23.48,169.43C59.86,3295.22,33.9,3308.34,15.8,3308.34Z"/>
                            <path class="cls-7" d="M23.44,3480.46a9.92,9.92,0,1,1,0-19.85c19.27,0,37.7-12.3,51.9-34.64,15.09-23.73,23.4-55.51,23.4-89.48a9.92,9.92,0,1,1,19.85,0c0,37.7-9.41,73.26-26.5,100.13C74.12,3464.89,49.74,3480.46,23.44,3480.46Z"/>
                            <path class="cls-7" d="M35.47,3888.41a9.92,9.92,0,0,1,0-19.85c25.29,0,46.65-36.21,46.65-79.06a9.92,9.92,0,1,1,19.85,0c0,25.65-6.43,49.89-18.11,68.26C71.3,3877.53,54.11,3888.41,35.47,3888.41Z"/>
                            <polygon class="cls-7" points="412.15 2992.79 377.15 2992.79 357.15 4174.79 432.15 4174.79 412.15 2992.79"/>
                            <path class="cls-7" d="M381.36,3218.94c-28.17,0-54.5-13.4-74.15-37.74-19.15-23.72-29.7-55.15-29.7-88.5a9.92,9.92,0,1,1,19.85,0c0,58.67,37.68,106.39,84,106.39A9.92,9.92,0,1,1,381.36,3218.94Z"/>
                            <path class="cls-7" d="M384.79,3639.14c-25.31,0-48.72-15.5-65.93-43.66-16.28-26.63-25.24-61.85-25.24-99.19a9.92,9.92,0,1,1,19.85,0c0,33.73,7.93,65.28,22.33,88.84,13.46,22,30.86,34.16,49,34.16A9.92,9.92,0,1,1,384.79,3639.14Z"/>
                            <path class="cls-7" d="M400.32,3529.14a9.92,9.92,0,1,1,0-19.85c19.42,0,38-12.2,52.26-34.36,15.15-23.51,23.5-55,23.5-88.64a9.92,9.92,0,1,1,19.85,0c0,37.42-9.47,72.72-26.67,99.39C451.2,3513.71,426.72,3529.14,400.32,3529.14Z"/>
                            <polygon class="cls-7" points="726.79 2992.79 691.79 2992.79 671.79 4174.79 746.79 4174.79 726.79 2992.79"/>
                            <path class="cls-7" d="M717.8,3335.65a9.92,9.92,0,0,1,0-19.85c15.92,0,33.16-22.63,46.1-60.53,14.47-42.36,22.44-98.92,22.44-159.28a9.92,9.92,0,0,1,19.85,0c0,62.48-8.35,121.32-23.5,165.69C761.81,3322.81,735.88,3335.65,717.8,3335.65Z"/>
                            <path class="cls-7" d="M722,3642.8a9.92,9.92,0,0,1,0-19.85c13.46,0,26.43-8.78,36.54-24.73,11-17.35,17.05-40.65,17.05-65.59a9.92,9.92,0,0,1,19.85,0c0,28.65-7.15,55.72-20.13,76.21C761.48,3630.74,742.55,3642.8,722,3642.8Z"/>
                        </g>
                        <g id="tree_trunks-2" data-name="tree trunks">
                            <polygon class="cls-8" points="183.74 2992.79 148.74 2992.79 128.74 4174.79 203.74 4174.79 183.74 2992.79"/>
                            <path class="cls-8" d="M157.75,3262.81c-33.44,0-64.26-25.54-86.8-71.9-21.43-44.09-33.23-102.54-33.23-164.57a9.92,9.92,0,0,1,19.85,0c0,59.09,11.09,114.46,31.23,155.9,19,39.16,43.52,60.73,68.94,60.73A9.92,9.92,0,1,1,157.75,3262.81Z"/>
                            <path class="cls-8" d="M176.73,3263.68a9.92,9.92,0,1,1,0-19.85c27.26,0,53.48-23.12,73.81-65.11,21.44-44.27,33.25-103.41,33.25-166.52a9.92,9.92,0,1,1,19.85,0c0,66-12.52,128.25-35.24,175.17C244.57,3236.58,212,3263.68,176.73,3263.68Z"/>
                            <path class="cls-8" d="M160.23,3660.8c-55.62,0-100.87-49.42-100.87-110.17a9.92,9.92,0,1,1,19.85,0c0,49.8,36.35,90.32,81,90.32A9.92,9.92,0,1,1,160.23,3660.8Z"/>
                            <polygon class="cls-8" points="513.77 2992.79 478.77 2992.79 458.77 4174.79 533.77 4174.79 513.77 2992.79"/>
                            <path class="cls-8" d="M487.78,3335.65c-33.46,0-64.29-25.88-86.82-72.88-21.41-44.68-33.2-103.91-33.2-166.77a9.92,9.92,0,0,1,19.85,0c0,60,11.1,116.14,31.25,158.19,18.77,39.16,43.89,61.61,68.92,61.61A9.92,9.92,0,0,1,487.78,3335.65Z"/>
                            <path class="cls-8" d="M492.41,3180.82c-22.35,0-43.12-11.9-58.48-33.52-14.63-20.59-22.69-47.81-22.69-76.65a9.92,9.92,0,1,1,19.85,0c0,24.75,6.75,47.89,19,65.15,11.54,16.23,26.56,25.17,42.3,25.17A9.92,9.92,0,0,1,492.41,3180.82Z"/>
                            <path class="cls-8" d="M509,3642.8a9.92,9.92,0,0,1,0-19.85c13.46,0,26.43-8.78,36.54-24.73,11-17.35,17.05-40.65,17.05-65.59a9.92,9.92,0,0,1,19.85,0c0,28.65-7.15,55.72-20.13,76.21C548.46,3630.74,529.53,3642.8,509,3642.8Z"/>
                        </g>
                        <path id="tree_crowns" data-name="tree crowns" class="cls-9" d="M783.33,3088.32a119,119,0,0,0-166.66-106.57,109,109,0,0,0-157-72.34A111,111,0,0,0,280.4,2927a104.35,104.35,0,0,0-144.93,30.4,76.38,76.38,0,0,0-9.8-.93A134,134,0,0,0-4.64,2853.79a134,134,0,0,0-134,134,134,134,0,0,0,134,134,133.42,133.42,0,0,0,82.52-28.42,76,76,0,0,0,83.34,4.81,104.34,104.34,0,0,0,121.1,1.8,59.36,59.36,0,0,0,104.82-6.71,110.28,110.28,0,0,0,43.14-13.44A109.2,109.2,0,0,0,469.69,3107a59,59,0,0,0,45.49,51.25,42,42,0,1,0,78.74,28.41A119.16,119.16,0,0,0,687,3207.63,80,80,0,1,0,783.33,3088.32Z"/>
                    </g>
                    <path class="cls-8" d="M800,4400H0V4050.13c26.46-10.89,55.66-26.31,111-33.88,142.49-19.5,189.89,25.29,339,3,160.49-24,280.49-7.5,350.05,30.88V4400Z"/>
                    <path id="ground-2" data-name="ground" class="cls-10" d="M800,4400H0V4131c39.74-16,99.14-35,172.46-39.71,102.86-6.62,176.74,18.53,229.93,32.21,88.56,22.79,219,39.34,397.61,7.5v269Z"/>
                    <g id="front_trees" data-name="front trees">
                        <polygon class="cls-10" points="225.74 2992.79 190.74 2992.79 170.74 4174.79 245.74 4174.79 225.74 2992.79"/>
                        <path class="cls-10" d="M201.21,3193.81c-29.8,0-57.43-18.49-77.8-52.06-19.43-32-30.13-74.43-30.13-119.4a9.92,9.92,0,1,1,19.85,0c0,41.39,9.68,80.14,27.25,109.1C157,3158.86,178.61,3174,201.21,3174A9.92,9.92,0,0,1,201.21,3193.81Z"/>
                        <path class="cls-10" d="M218.73,3317.91a9.92,9.92,0,0,1,0-19.85c26.54,0,53.34-29.09,73.53-79.81,21.63-54.36,33.54-126.91,33.54-204.27a9.92,9.92,0,1,1,19.85,0c0,79.82-12.41,155-35,211.61C287,3285.12,254.35,3317.91,218.73,3317.91Z"/>
                        <path class="cls-10" d="M217.21,3470.59a9.92,9.92,0,1,1,0-19.85c30.37,0,55.08-32.22,55.08-71.83a9.92,9.92,0,1,1,19.85,0c0,24.09-7.52,46.82-21.18,64C256.76,3460.76,237.67,3470.59,217.21,3470.59Z"/>
                        <polygon class="cls-10" points="648.23 2992.79 683.23 2992.79 703.23 4172.79 628.23 4172.79 648.23 2992.79"/>
                        <path class="cls-10" d="M672.77,3219.45a9.92,9.92,0,1,1,0-19.85c48.56,0,88.08-56,88.08-124.9a9.92,9.92,0,1,1,19.85,0c0,38.12-10.86,74.06-30.58,101.19C729.69,3204,702.23,3219.45,672.77,3219.45Z"/>
                        <path class="cls-10" d="M655.25,3291.86c-34.77,0-67.12-20.53-91.09-57.81-23.1-35.92-35.82-83.52-35.82-134a9.92,9.92,0,1,1,19.85,0c0,46.75,11.6,90.54,32.67,123.29,20.19,31.4,46.62,48.69,74.4,48.69A9.92,9.92,0,1,1,655.25,3291.86Z"/>
                        <path class="cls-10" d="M652.91,3536.91c-26.16,0-50.35-16.36-68.12-46.07-16.82-28.11-26.08-65.31-26.08-104.75a9.92,9.92,0,1,1,19.85,0c0,35.9,8.26,69.48,23.26,94.56,14,23.48,32.19,36.41,51.09,36.41A9.92,9.92,0,1,1,652.91,3536.91Z"/>
                        <path id="tree_crowns-2" data-name="tree crowns" class="cls-11" d="M737.45,2782.79a172.69,172.69,0,0,0-97.56,30,132.18,132.18,0,0,0-198.23-11.22,91.92,91.92,0,0,0-157.05,7,136.42,136.42,0,0,0-144.4-12.09,75,75,0,0,0-112.76-3.26A100,100,0,1,0,5.36,2990.79a99.66,99.66,0,0,0,68.93-27.55,135.68,135.68,0,0,0,11.21,23.9,45.5,45.5,0,0,0,69.75,58.3,136.67,136.67,0,0,0,105.35-4.31,59.21,59.21,0,1,0,62.67-59.65,135.36,135.36,0,0,0,14-41.25A92.08,92.08,0,0,0,411.7,2932c14.69,43.31,52.08,76.38,98.27,85.51a80.5,80.5,0,1,0,135.93,86.19A173.5,173.5,0,1,0,737.45,2782.79Z"/>
                    </g>
                    <g id="stones">
                        <ellipse class="cls-12" cx="277.46" cy="4173.75" rx="33" ry="7.5"/>
                        <ellipse class="cls-12" cx="314.95" cy="4205.99" rx="16.5" ry="5.25"/>
                        <ellipse class="cls-12" cx="243.71" cy="4143" rx="18.75" ry="5.25"/>
                        <ellipse class="cls-12" cx="457.45" cy="4182" rx="31.5" ry="8.25"/>
                        <ellipse class="cls-12" cx="249.71" cy="4196.99" rx="23.25" ry="5.25"/>
                        <ellipse class="cls-12" cx="555.69" cy="4188.74" rx="18.75" ry="4.5"/>
                        <ellipse class="cls-12" cx="506.95" cy="4208.99" rx="16.5" ry="5.25"/>
                        <ellipse class="cls-12" cx="674.19" cy="4191.74" rx="30.75" ry="7.5"/>
                        <ellipse class="cls-12" cx="630.69" cy="4220.99" rx="18.75" ry="3.75"/>
                        <ellipse class="cls-12" cx="101.97" cy="4144.5" rx="25.5" ry="6.75"/>
                        <ellipse class="cls-12" cx="138.71" cy="4186.5" rx="18.75" ry="5.25"/>
                        <ellipse class="cls-12" cx="92.22" cy="4204.49" rx="15.75" ry="3.75"/>
                        <ellipse class="cls-12" cx="374.95" cy="4254.74" rx="15" ry="4.5"/>
                        <ellipse class="cls-12" cx="395.2" cy="4271.99" rx="12.75" ry="5.25"/>
                        <ellipse class="cls-12" cx="510.69" cy="4265.24" rx="15.75" ry="4.5"/>
                        <ellipse class="cls-12" cx="684.69" cy="4243.49" rx="15.75" ry="3.75"/>
                        <ellipse class="cls-12" cx="172.46" cy="4272.74" rx="21" ry="4.5"/>
                        <ellipse class="cls-12" cx="156.71" cy="4247.99" rx="15.75" ry="5.25"/>
                        <ellipse class="cls-12" cx="682.44" cy="4283.99" rx="16.5" ry="3.75"/>
                    </g>
                </g>
            </g>
        </g>
        <g id="Clouds_Mountains" data-name="Clouds &amp; Mountains">
            <g class="cls-13">
                <path class="cls-14" d="M-371.81,1892.46c37.14-384.18,427-754.68,937.11-864.16,487-104.53,925.35,62.81,1072.69,382.25,12.8-80.43,11-160.78-7.41-238.59C1532.65,757.08,1002,571.47,445.39,757.38S-483.08,1430.33-385.14,1845.2Q-379.44,1869.35-371.81,1892.46Z"/>
                <g class="cls-15">
                    <path class="cls-16" d="M1593,1330.53C1413.83,1064,1009.82,932.88,565.3,1028.29,95.87,1129.05-271.78,1450.91-356.32,1801c136.14-303.52,496.13-547.36,931.4-596.49,491.44-55.47,919.26,155.31,1048.37,488.6,17.25-78.92,19.9-159.23,5.92-238.67A577.65,577.65,0,0,0,1593,1330.53Z"/>
                </g>
                <path class="cls-17" d="M262.77,1050.83v-2.34a11.86,11.86,0,0,1,11.86-11.86h46a11.86,11.86,0,0,0,11.86-11.86v-2.83a11.86,11.86,0,0,0-11.86-11.86H184.6a11.86,11.86,0,0,0-11.86,11.86v2.83a11.86,11.86,0,0,0,11.86,11.86h24.19a11.86,11.86,0,0,1,11.86,11.86v2.34a11.86,11.86,0,0,1-11.86,11.86h-61a11.86,11.86,0,0,0-11.86,11.86h0a11.86,11.86,0,0,0,11.86,11.86H357.53a11.86,11.86,0,0,0,11.86-11.86h0a11.86,11.86,0,0,0-11.86-11.86h-82.9A11.86,11.86,0,0,1,262.77,1050.83Z"/>
                <path class="cls-17" d="M559.88,860.49h0a10,10,0,0,0-10-10H535.45a10.21,10.21,0,0,1-10.21-10.21h0a10.21,10.21,0,0,1,10.21-10.21h83.43a10.21,10.21,0,0,1,10.21,10.21h0a10.21,10.21,0,0,1-10.21,10.21h-16.6a10,10,0,0,0-10,10h0a10,10,0,0,0,10,10h39a9.12,9.12,0,0,1,9.12,9.12h0a9.12,9.12,0,0,1-9.12,9.12H487a9.12,9.12,0,0,1-9.12-9.12h0a9.12,9.12,0,0,1,9.12-9.12h62.83A10,10,0,0,0,559.88,860.49Z"/>
                <path class="cls-17" d="M665.35,991.26v-3.44a11.31,11.31,0,0,1,11.31-11.31H723.8a11.31,11.31,0,0,0,11.31-11.31v-3.94A11.31,11.31,0,0,0,723.8,950H586.62a11.31,11.31,0,0,0-11.31,11.31v3.94a11.31,11.31,0,0,0,11.31,11.31h25.29a11.31,11.31,0,0,1,11.31,11.31v3.44a11.31,11.31,0,0,1-11.31,11.31H549.77a11.31,11.31,0,0,0-11.31,11.31v1.1a11.31,11.31,0,0,0,11.31,11.31H676.65A11.31,11.31,0,0,0,688,1015v-1.1a11.31,11.31,0,0,0-11.31-11.31h0A11.31,11.31,0,0,1,665.35,991.26Z"/>
                <path class="cls-17" d="M188.18,733.23v-3.44a11.31,11.31,0,0,0-11.31-11.31H129.73a11.31,11.31,0,0,1-11.31-11.31v-3.94a11.31,11.31,0,0,1,11.31-11.31H266.91a11.31,11.31,0,0,1,11.31,11.31v3.94a11.31,11.31,0,0,1-11.31,11.31H241.62a11.31,11.31,0,0,0-11.31,11.31v3.44a11.31,11.31,0,0,0,11.31,11.31h62.14a11.31,11.31,0,0,1,11.31,11.31v1.1a11.31,11.31,0,0,1-11.31,11.31H176.88a11.31,11.31,0,0,1-11.31-11.31v-1.1a11.31,11.31,0,0,1,11.31-11.31h0A11.31,11.31,0,0,0,188.18,733.23Z"/>
                <path class="cls-17" d="M175.77,1360.17v-2.34A11.86,11.86,0,0,1,187.63,1346h2.28a11.86,11.86,0,0,0,11.86-11.86v-2.83a11.86,11.86,0,0,0-11.86-11.86H151.63a11.86,11.86,0,0,0-11.86,11.86v2.83A11.86,11.86,0,0,1,127.91,1346H95.63a11.86,11.86,0,0,0-11.86,11.86v2.34A11.86,11.86,0,0,0,95.63,1372h32.28a11.86,11.86,0,0,1,11.86,11.86h0a11.86,11.86,0,0,0,11.86,11.86h94.28a11.86,11.86,0,0,0,11.86-11.86h0A11.86,11.86,0,0,0,245.91,1372H187.63A11.86,11.86,0,0,1,175.77,1360.17Z"/>
                <path class="cls-18" d="M139.89,2019.82h0a47.76,47.76,0,0,1,47.76,47.76v708.27a0,0,0,0,1,0,0H92.13a0,0,0,0,1,0,0V2067.57a47.76,47.76,0,0,1,47.76-47.76Z"/>
                <path class="cls-19" d="M275.9,2121.81h0a47.76,47.76,0,0,1,47.76,47.76v606.28a0,0,0,0,1,0,0H228.14a0,0,0,0,1,0,0V2169.57A47.76,47.76,0,0,1,275.9,2121.81Z"/>
                <path class="cls-20" d="M522.79,2075.31h0A47.66,47.66,0,0,1,570.45,2123v652.87a0,0,0,0,1,0,0H475.13a0,0,0,0,1,0,0V2123A47.66,47.66,0,0,1,522.79,2075.31Z"/>
                <path class="cls-21" d="M618.11,2163.2h0a47.66,47.66,0,0,1,47.66,47.66v565a0,0,0,0,1,0,0H570.45a0,0,0,0,1,0,0v-565A47.66,47.66,0,0,1,618.11,2163.2Z"/>
                <path class="cls-22" d="M576.67,2361.8h0.47a47.27,47.27,0,0,1,47.27,47.27V2771.8a0,0,0,0,1,0,0h-95a0,0,0,0,1,0,0V2409.07a47.27,47.27,0,0,1,47.27-47.27Z"/>
                <path class="cls-23" d="M754.3,1998.25h0A47.66,47.66,0,0,1,802,2045.91v729.93a0,0,0,0,1,0,0H706.64a0,0,0,0,1,0,0V2045.91A47.66,47.66,0,0,1,754.3,1998.25Z"/>
                <path class="cls-24" d="M44.37,2208.81h0a47.76,47.76,0,0,1,47.76,47.76v519.28a0,0,0,0,1,0,0H-3.38a0,0,0,0,1,0,0V2256.56a47.76,47.76,0,0,1,47.76-47.76Z"/>
                <path class="cls-25" d="M216.18,2285.47h0a47.76,47.76,0,0,1,47.76,47.76v441.29a0,0,0,0,1,0,0H168.43a0,0,0,0,1,0,0V2333.23A47.76,47.76,0,0,1,216.18,2285.47Z"/>
                <path class="cls-26" d="M239.9,1585.22a17.12,17.12,0,0,0,.72-4.93,16.4,16.4,0,0,0-16.15-16.65,15.67,15.67,0,0,0-6.37,1.35,19.06,19.06,0,0,0-17-10.6,18.58,18.58,0,0,0-5.36.8,27.41,27.41,0,0,0-24.54-15.6c-13.79,0-25.18,10.48-27.17,24.13-0.51,0-1-.08-1.54-0.08a16.4,16.4,0,0,0-16.15,16.65,17.12,17.12,0,0,0,.72,4.93H239.9Z"/>
                <path class="cls-26" d="M219.12,1523.22a16.66,16.66,0,0,1-.5-4.07c0-7.58,5-13.73,11.17-13.73a9.37,9.37,0,0,1,4.4,1.11c2.21-5.19,6.63-8.74,11.72-8.74a10.94,10.94,0,0,1,3.71.66c3.13-7.62,9.55-12.86,17-12.86,9.54,0,17.41,8.64,18.79,19.9a9.2,9.2,0,0,1,1.06-.07c6.17,0,11.17,6.15,11.17,13.73a16.66,16.66,0,0,1-.5,4.07h-78Z"/>
                <path class="cls-26" d="M641.12,1395.22a16.66,16.66,0,0,1-.5-4.07c0-7.58,5-13.73,11.17-13.73a9.37,9.37,0,0,1,4.4,1.11c2.21-5.19,6.63-8.74,11.72-8.74a10.94,10.94,0,0,1,3.71.66c3.13-7.62,9.55-12.86,17-12.86,9.54,0,17.41,8.64,18.79,19.9a9.2,9.2,0,0,1,1.06-.07c6.17,0,11.17,6.15,11.17,13.73a16.66,16.66,0,0,1-.5,4.07h-78Z"/>
                <path class="cls-27" d="M153.57,1868.89a31.42,31.42,0,0,1,42.4-38.18,37.13,37.13,0,0,1,43.41-18.49A53.45,53.45,0,0,1,340,1828.32c1-.09,2-0.15,3-0.15a31.43,31.43,0,0,1,30,40.72H153.57Z"/>
                <path class="cls-27" d="M206.76,1783.62a21.83,21.83,0,0,0-29.45-26.52,25.79,25.79,0,0,0-30.16-12.84,37.13,37.13,0,0,0-69.89,11.18c-0.68-.06-1.37-0.1-2.08-0.1a21.84,21.84,0,0,0-20.85,28.29H206.76Z"/>
                <path class="cls-27" d="M549.87,1939.05a34.77,34.77,0,0,1-1.25-9.28c0-17.29,12.52-31.31,28-31.31a25.32,25.32,0,0,1,11,2.54c5.54-11.84,16.59-19.93,29.36-19.93a29.82,29.82,0,0,1,9.28,1.5c7.85-17.38,23.91-29.33,42.49-29.33,23.88,0,43.6,19.7,47,45.37a25.27,25.27,0,0,1,2.66-.15c15.44,0,28,14,28,31.31a34.77,34.77,0,0,1-1.25,9.28H549.87Z"/>
                <path class="cls-27" d="M723.06,1710.54a22.72,22.72,0,0,0-30.66-27.61,26.85,26.85,0,0,0-31.4-13.37,38.65,38.65,0,0,0-72.76,11.64c-0.71-.07-1.43-0.11-2.16-0.11a22.73,22.73,0,0,0-21.7,29.45H723.06Z"/>
                <path class="cls-27" d="M135.34,2500.16a26.06,26.06,0,0,1,35.17-31.67,30.8,30.8,0,0,1,36-15.34A44.34,44.34,0,0,1,290,2466.5c0.82-.08,1.64-0.13,2.48-0.13a26.08,26.08,0,0,1,24.9,33.78h-182Z"/>
                <path class="cls-27" d="M645,2110.12a18,18,0,0,1,24.3-21.88,21.27,21.27,0,0,1,24.88-10.6,30.63,30.63,0,0,1,57.65,9.22c0.56-.05,1.13-0.09,1.71-0.09a18,18,0,0,1,17.2,23.33H645Z"/>
                <path class="cls-27" d="M172.55,2417.72a18.44,18.44,0,0,0,.64-4.83c0-9-6.38-16.29-14.25-16.29a12.69,12.69,0,0,0-5.62,1.32c-2.82-6.16-8.46-10.37-15-10.37a14.92,14.92,0,0,0-4.73.78c-4-9-12.19-15.26-21.66-15.26-12.17,0-22.22,10.25-24,23.6a12.62,12.62,0,0,0-1.36-.08c-7.87,0-14.25,7.29-14.25,16.29a18.44,18.44,0,0,0,.64,4.83h99.53Z"/>
                <path class="cls-27" d="M634.59,2270.71a18.44,18.44,0,0,0,.64-4.83c0-9-6.38-16.29-14.25-16.29a12.69,12.69,0,0,0-5.62,1.32c-2.82-6.16-8.46-10.37-15-10.37a14.92,14.92,0,0,0-4.73.78c-4-9-12.19-15.26-21.66-15.26-12.17,0-22.22,10.25-24,23.6a12.62,12.62,0,0,0-1.36-.08c-7.87,0-14.25,7.29-14.25,16.29a18.44,18.44,0,0,0,.64,4.83h99.53Z"/>
            </g>
        </g>
        <g id="Planets">
            <g class="cls-28">
                <circle class="cls-29" cx="236.6" cy="102.25" r="65" transform="translate(56.18 286.32) rotate(-68.94)"/>
                <g class="cls-30">
                    <circle class="cls-31" cx="650.24" cy="168.43" r="182.5" transform="translate(-12.92 275.18) rotate(-23.67)"/>
                    <path class="cls-32" d="M412.63,62.24h0A15,15,0,0,0,432.39,70L535.08,25a15,15,0,0,1,19.76,7.72h0a15,15,0,0,1-7.72,19.76L496.44,74.64a15,15,0,0,0-7.72,19.76h0a15,15,0,0,0,19.76,7.72L590.3,66.26A15,15,0,0,1,610.06,74h0a15,15,0,0,1-7.72,19.76l-68.08,29.84a15,15,0,0,0-7.72,19.76h0A15,15,0,0,0,546.31,151L571,140.21a15,15,0,0,1,19.76,7.72h0a15,15,0,0,1-7.72,19.76L503.7,202.48A15,15,0,0,0,496,222.24h0A15,15,0,0,0,515.74,230l33.58-14.72A15,15,0,0,1,569.09,223h0a15,15,0,0,1-7.72,19.76l-4,1.74a15,15,0,0,0-7.72,19.76h0a15,15,0,0,0,19.76,7.72l86.09-37.73a15,15,0,0,1,19.76,7.72h0a15,15,0,0,1-7.72,19.76l-66.25,29a15,15,0,0,0-7.72,19.76h0a15,15,0,0,0,19.76,7.72l47-20.61a15,15,0,0,1,19.76,7.72h0a15,15,0,0,1-7.72,19.76L626,345.39a15,15,0,0,0-7.72,19.76h0a15,15,0,0,0,19.76,7.72L699,346.16a15,15,0,0,1,19.76,7.72h0a15,15,0,0,1-7.72,19.76L630,409.18a15,15,0,0,0-7.72,19.76h0A15,15,0,0,0,642,436.66L985.66,286a15,15,0,0,0,7.72-19.76L824.78-118.4A15,15,0,0,0,805-126.11L420.34,42.48A15,15,0,0,0,412.63,62.24Z"/>
                    <path class="cls-33" d="M468.5,37.76h0a15,15,0,0,0,19.76,7.72L663.61-31.38a15,15,0,0,1,19.76,7.72h0A15,15,0,0,1,675.65-3.9L558.11,47.61a15,15,0,0,0-7.72,19.76h0a15,15,0,0,0,19.76,7.72l57.7-25.29a15,15,0,0,1,19.76,7.72h0a15,15,0,0,1-7.72,19.76l-85.18,37.33A15,15,0,0,0,547,134.37h0a15,15,0,0,0,19.76,7.72l80.9-35.46a15,15,0,0,1,19.76,7.72h0a15,15,0,0,1-7.72,19.76L559.57,178a15,15,0,0,0-7.72,19.76h0a15,15,0,0,0,19.76,7.72L618,185.13a15,15,0,0,1,19.76,7.72h0a15,15,0,0,1-7.72,19.76l-16.49,7.23a15,15,0,0,0-7.72,19.76h0a15,15,0,0,0,19.76,7.72l73.88-32.38a15,15,0,0,1,19.76,7.72h0a15,15,0,0,1-7.72,19.76l-26.87,11.77A15,15,0,0,0,677,273.94h0a15,15,0,0,0,19.76,7.72l62.89-27.56a15,15,0,0,1,19.76,7.72h0a15,15,0,0,1-7.72,19.76L681.9,320.91a15,15,0,0,0-7.72,19.76h0a15,15,0,0,0,19.76,7.72l60.95-26.71a15,15,0,0,1,19.76,7.72h0a15,15,0,0,1-7.72,19.76l-81.1,35.54a15,15,0,0,0-7.72,19.76h0a15,15,0,0,0,19.76,7.72l343.65-150.62a15,15,0,0,0,7.72-19.76L880.65-142.88a15,15,0,0,0-19.76-7.72L476.21,18A15,15,0,0,0,468.5,37.76Z"/>
                    <path class="cls-34" d="M512.76,18.35h0a15,15,0,0,0,19.76,7.72l123.15-54a15,15,0,0,1,19.76,7.72h0A15,15,0,0,1,667.71-.42L592.31,32.63a15,15,0,0,0-7.72,19.76h0a15,15,0,0,0,19.76,7.72l99.22-43.49a15,15,0,0,1,19.76,7.72h0a15,15,0,0,1-7.72,19.76L645.7,74.73A15,15,0,0,0,638,94.49h0a15,15,0,0,0,19.76,7.72L690.1,88a15,15,0,0,1,19.76,7.72h0a15,15,0,0,1-7.72,19.76l-47.63,20.87a15,15,0,0,0-7.72,19.76h0a15,15,0,0,0,19.76,7.72l60.34-26.44a15,15,0,0,1,19.76,7.72h0a15,15,0,0,1-7.72,19.76l-95.14,41.7a15,15,0,0,0-7.72,19.76h0a15,15,0,0,0,19.76,7.72L773,182.73a15,15,0,0,1,19.76,7.72h0A15,15,0,0,1,785,210.21l-35.3,15.47A15,15,0,0,0,742,245.44h0a15,15,0,0,0,19.76,7.72L785,243a15,15,0,0,1,19.76,7.72h0A15,15,0,0,1,797,270.46l-70.83,31a15,15,0,0,0-7.72,19.76h0A15,15,0,0,0,738.21,329l60.95-26.71A15,15,0,0,1,818.91,310h0a15,15,0,0,1-7.72,19.76l-81.1,35.54a15,15,0,0,0-7.72,19.76h0a15,15,0,0,0,19.76,7.72L1085.8,242.15a15,15,0,0,0,7.72-19.76L924.92-162.28A15,15,0,0,0,905.16-170L520.48-1.41A15,15,0,0,0,512.76,18.35Z"/>
                </g>
                <g class="cls-35">
                    <circle class="cls-29" cx="679.65" cy="345.29" r="65" transform="translate(113.23 855.51) rotate(-68.94)"/>
                    <circle class="cls-29" cx="679.65" cy="345.29" r="65" transform="translate(113.23 855.51) rotate(-68.94)"/>
                    <path class="cls-36" d="M703.28,317.42s0.53,0.06,1.43.23,2.18,0.43,3.69.82a95.07,95.07,0,0,1,10.82,3.48,94,94,0,0,1,10.36,4.67c1.38,0.72,2.5,1.39,3.29,1.87s1.22,0.79,1.22.79-0.53-.06-1.43-0.23-2.18-.43-3.69-0.82a94,94,0,0,1-10.82-3.48,95.06,95.06,0,0,1-10.36-4.67c-1.38-.72-2.51-1.39-3.29-1.87S703.28,317.42,703.28,317.42Z"/>
                    <path class="cls-36" d="M613.39,324.07s0.53,0.06,1.43.23,2.18,0.43,3.69.82a95.06,95.06,0,0,1,10.82,3.48,94,94,0,0,1,10.36,4.67c1.38,0.72,2.5,1.39,3.29,1.87s1.22,0.79,1.22.79-0.53-.06-1.43-0.23-2.18-.43-3.69-0.82a94,94,0,0,1-10.82-3.48,95.06,95.06,0,0,1-10.36-4.67c-1.38-.72-2.51-1.39-3.29-1.87S613.39,324.07,613.39,324.07Z"/>
                    <path class="cls-36" d="M688.22,337.07s0.37,0,1,.06,1.5,0.17,2.53.36a43.79,43.79,0,0,1,7.29,2.13,43.34,43.34,0,0,1,6.83,3.31c0.89,0.55,1.62,1.05,2.12,1.43s0.77,0.62.77,0.62-0.37,0-1-.06-1.5-.17-2.53-0.36a43.34,43.34,0,0,1-7.28-2.13,43.79,43.79,0,0,1-6.83-3.31c-0.89-.55-1.62-1.05-2.12-1.43S688.22,337.07,688.22,337.07Z"/>
                    <path class="cls-36" d="M652.42,375.79s0.46,0,1.23.16,1.87,0.31,3.16.62a68.58,68.58,0,0,1,9.21,2.86,67.83,67.83,0,0,1,8.75,4.05c1.16,0.64,2.1,1.23,2.76,1.66s1,0.71,1,.71-0.46,0-1.23-.15-1.87-.31-3.16-0.61a67.84,67.84,0,0,1-9.21-2.86,68.59,68.59,0,0,1-8.75-4.06c-1.16-.64-2.1-1.23-2.76-1.66S652.42,375.79,652.42,375.79Z"/>
                    <path class="cls-36" d="M651.89,309.42s3.79,0.92,9.32,2.67c1.39,0.43,2.89.9,4.46,1.44s3.24,1.07,4.95,1.69,3.48,1.21,5.26,1.89l5.4,2,5.36,2.12c1.77,0.68,3.49,1.44,5.17,2.13,3.34,1.4,6.44,2.76,9.08,4,5.28,2.42,8.71,4.27,8.71,4.27s-3.79-.92-9.33-2.67c-2.77-.86-6-1.92-9.41-3.13-1.7-.62-3.48-1.2-5.26-1.89l-5.4-2-5.36-2.12c-1.77-.69-3.49-1.44-5.17-2.13s-3.28-1.4-4.8-2.06-3-1.31-4.27-1.92C655.32,311.28,651.89,309.42,651.89,309.42Z"/>
                    <path class="cls-36" d="M609.52,349.9s3.79,0.92,9.32,2.67c1.39,0.43,2.89.9,4.46,1.44s3.24,1.07,4.95,1.69,3.48,1.21,5.26,1.89l5.4,2,5.36,2.12c1.77,0.68,3.49,1.44,5.17,2.13,3.34,1.4,6.44,2.76,9.08,4,5.28,2.42,8.71,4.27,8.71,4.27s-3.79-.92-9.33-2.67c-2.77-.86-6-1.93-9.41-3.13-1.7-.62-3.48-1.2-5.26-1.89l-5.4-2-5.36-2.12c-1.77-.69-3.49-1.44-5.17-2.13s-3.28-1.4-4.8-2.06-3-1.31-4.27-1.92C612.95,351.76,609.52,349.9,609.52,349.9Z"/>
                    <path class="cls-36" d="M679.77,360.87s3.79,0.92,9.32,2.67c1.39,0.43,2.89.9,4.46,1.44s3.24,1.07,4.95,1.69,3.48,1.21,5.26,1.89l5.4,2,5.36,2.12c1.77,0.68,3.49,1.44,5.17,2.13,3.34,1.4,6.44,2.76,9.08,4,5.28,2.42,8.71,4.27,8.71,4.27s-3.79-.92-9.33-2.67c-2.77-.86-6-1.92-9.41-3.13-1.7-.62-3.48-1.21-5.26-1.89l-5.4-2-5.36-2.12c-1.77-.69-3.49-1.44-5.17-2.13s-3.28-1.4-4.8-2.06-3-1.31-4.27-1.92C683.19,362.73,679.77,360.87,679.77,360.87Z"/>
                    <path class="cls-36" d="M608.4,377.87s3.79,0.92,9.32,2.67c1.39,0.43,2.89.9,4.46,1.44s3.24,1.07,4.95,1.69,3.48,1.21,5.26,1.89l5.4,2,5.36,2.12c1.77,0.68,3.49,1.44,5.17,2.13,3.34,1.4,6.44,2.76,9.08,4,5.28,2.42,8.71,4.27,8.71,4.27s-3.79-.92-9.33-2.67c-2.77-.86-6-1.93-9.41-3.13-1.7-.62-3.48-1.2-5.26-1.89l-5.4-2-5.36-2.12c-1.77-.69-3.49-1.44-5.17-2.13s-3.28-1.4-4.8-2.06-3-1.31-4.27-1.92C611.82,379.72,608.4,377.87,608.4,377.87Z"/>
                </g>
                <circle class="cls-37" cx="210.27" cy="299.04" r="40"/>
                <ellipse class="cls-38" cx="207.3" cy="268.58" rx="3.58" ry="5.37" transform="translate(-73.95 458.34) rotate(-86.35)"/>
                <ellipse class="cls-38" cx="203.06" cy="279.68" rx="1.82" ry="2.73" transform="translate(-88.99 464.5) rotate(-86.35)"/>
                <ellipse class="cls-38" cx="228.2" cy="297.18" rx="3.78" ry="5.68" transform="translate(-82.91 505.97) rotate(-86.35)"/>
                <ellipse class="cls-38" cx="219.27" cy="279.3" rx="2.84" ry="4.27" transform="translate(-73.43 480.33) rotate(-86.35)"/>
                <ellipse class="cls-38" cx="211.07" cy="310.34" rx="3.98" ry="5.98" transform="translate(-112.09 501.21) rotate(-86.35)"/>
                <ellipse class="cls-38" cx="206.29" cy="325.59" rx="2.41" ry="3.62" transform="translate(-131.78 510.71) rotate(-86.35)"/>
                <ellipse class="cls-38" cx="190.72" cy="313.92" rx="1.97" ry="2.96" transform="translate(-134.71 484.24) rotate(-86.35)"/>
                <ellipse class="cls-38" cx="185.06" cy="287.42" rx="2.89" ry="4.35" transform="translate(-113.57 453.79) rotate(-86.35)"/>
                <ellipse class="cls-38" cx="190.75" cy="297.34" rx="1.61" ry="2.41" transform="translate(-118.15 468.76) rotate(-86.35)"/>
                <ellipse class="cls-38" cx="231.82" cy="308.1" rx="1.46" ry="2.2" transform="translate(-90.42 519.82) rotate(-86.35)"/>
                <g class="cls-39">
                    <circle class="cls-40" cx="139.15" cy="192.49" r="110" transform="translate(-58.32 60.5) rotate(-20.38)"/>
                    <rect class="cls-41" x="-37.95" y="109.52" width="300" height="20" transform="translate(-34.61 46.5) rotate(-20.38)"/>
                    <rect class="cls-42" x="-30.99" y="128.27" width="300" height="20" transform="translate(-40.7 50.09) rotate(-20.38)"/>
                    <rect class="cls-43" x="-24.02" y="147.02" width="300" height="20" transform="translate(-46.79 53.69) rotate(-20.38)"/>
                    <rect class="cls-41" x="-10.09" y="184.52" width="300" height="20" transform="translate(-58.98 60.89) rotate(-20.38)"/>
                    <rect class="cls-43" x="-3.13" y="203.26" width="300" height="20" transform="translate(-65.07 64.49) rotate(-20.38)"/>
                    <rect class="cls-41" x="3.83" y="222.01" width="300" height="20" transform="translate(-71.16 68.09) rotate(-20.38)"/>
                    <rect class="cls-42" x="17.76" y="259.51" width="300" height="20" transform="translate(-83.35 75.28) rotate(-20.38)"/>
                    <rect class="cls-43" x="24.73" y="278.26" width="300" height="20" transform="translate(-89.44 78.88) rotate(-20.38)"/>
                </g>
                <path class="cls-44" d="M225.08,123.78a104.69,104.69,0,0,1,6.9,9.67c25.3-5,41.88-5.32,44,.38,2.06,5.55-9.91,15.74-31.2,28-23.9,13.71-59.55,30-100.27,45.12S66.15,233,39.09,238.19c-24.1,4.64-39.82,4.74-41.88-.81-2.12-5.7,10.62-16.32,33.08-29a104.69,104.69,0,0,1-1.09-11.83c-46.27,23.39-74.67,44.59-70.71,55.23C-37.66,262.15-4,260,44.37,248.35c30.07-7.27,65.81-18.26,103.54-32.27s72-29,99.5-43.15c44.25-22.69,71.14-43.1,67.29-53.48C310.75,108.81,275.4,111.29,225.08,123.78Z"/>
                <circle class="cls-43" cx="364.45" cy="60.2" r="6.75"/>
                <circle class="cls-43" cx="429.7" cy="294.19" r="8.8"/>
                <circle class="cls-43" cx="83.97" cy="333.94" r="4.5"/>
                <circle class="cls-43" cx="88.47" cy="34.7" r="3.75"/>
                <circle class="cls-43" cx="578.94" cy="363.94" r="3"/>
                <circle class="cls-43" cx="715.36" cy="438.79" r="6.75"/>
                <circle class="cls-43" cx="766.43" cy="348.94" r="4.5"/>
                <circle class="cls-43" cx="425.95" cy="443.43" r="8.25"/>
                <circle class="cls-43" cx="89.86" cy="526.79" r="4.5"/>
                <circle class="cls-43" cx="386.95" cy="67.7" r="3.75"/>
                <circle class="cls-43" cx="335.95" cy="93.2" r="3.75"/>
                <circle class="cls-43" cx="128.96" cy="56.45" r="6.75"/>
                <circle class="cls-43" cx="124.46" cy="348.94" r="7.5"/>
                <circle class="cls-43" cx="59.22" cy="424.68" r="5.25"/>
                <circle class="cls-43" cx="257.21" cy="407.43" r="5.25"/>
                <circle class="cls-43" cx="302.21" cy="244.69" r="3.75"/>
                <circle class="cls-43" cx="379.45" cy="159.2" r="3.75"/>
                <circle class="cls-43" cx="457.36" cy="457.79" r="3.75"/>
                <circle class="cls-43" cx="392.95" cy="471.93" r="3"/>
                <circle class="cls-43" cx="585.69" cy="394.68" r="5.25"/>
                <circle class="cls-43" cx="744.36" cy="421.79" r="3"/>
                <circle class="cls-43" cx="557.94" cy="545.43" r="6"/>
                <circle class="cls-43" cx="467.95" cy="60.95" r="3"/>
                <circle class="cls-43" cx="295.86" cy="544.79" r="4.5"/>
                <circle class="cls-43" cx="190.16" cy="596.03" r="4.5"/>
                <circle class="cls-43" cx="733.36" cy="561.79" r="7.97"/>
                <circle class="cls-43" cx="745.43" cy="615.92" r="6.26"/>
                <circle class="cls-43" cx="332.95" cy="350.44" r="5.55"/>
                <circle class="cls-43" cx="458.95" cy="342.94" r="4.5"/>
            </g>
        </g>
    </g>
</g>
</svg>