<?xml version="1.0" encoding="UTF-8" standalone="no"?>
<!DOCTYPE svg PUBLIC "-//W3C//DTD SVG 1.1//EN" "http://www.w3.org/Graphics/SVG/1.1/DTD/svg11.dtd">
<svg xmlns="http://www.w3.org/2000/svg" xmlns:xlink="http://www.w3.org/1999/xlink" width="100%" height="100%" viewBox="0 0 322 203" version="1.1" xml:space="preserve" style="fill-rule:evenodd;clip-rule:evenodd;stroke-linejoin:round;stroke-miterlimit:1.41421;">
<g id="UFO">
    <path d="M61.55,112.5c5.333,50.637 48.532,89.526 99.45,89.526c50.918,0 94.117,-38.889 99.45,-89.526l-198.9,0Z" style="fill:#f8ce82;fill-rule:nonzero;"/>
    <path d="M61.55,112.5c5.25,43.36 47.77,77.17 99.45,77.17c51.68,0 94.2,-33.8 99.45,-77.17l-198.9,0Z" style="fill:#3ec2bf;fill-rule:nonzero;"/>
    <path d="M321,116.91c0,27.74 -71.63,54.23 -160,54.23c-88.37,0 -160,-26.49 -160,-54.23c0,-27.74 71.63,-47.23 160,-47.23c88.37,0 160,19.49 160,47.23Z" style="fill:#db2e73;fill-rule:nonzero;"/>
    <ellipse cx="161" cy="115.19" rx="160" ry="45" style="fill:#f04d8b;"/>
    <path d="M261,102c0,-54.858 -45.142,-100 -100,-100c-54.858,0 -100,45.142 -100,100c0.001,3.507 0.185,7.012 0.55,10.5c65.511,14.446 133.389,14.446 198.9,0c0.402,-3.485 0.585,-6.992 0.55,-10.5Z" style="fill:#3ec2bf;fill-rule:nonzero;"/>
    <path d="M82,111c0.035,-54.867 45.193,-99.995 100.06,-99.995c9.675,0 19.298,1.403 28.57,4.165c-15.113,-8.639 -32.222,-13.185 -49.63,-13.185c-54.858,0 -100,45.142 -100,100c0,0.005 0,0.01 0,0.015c0.001,3.507 0.185,7.012 0.55,10.5c6.43,1.42 13.32,2.79 20.61,4.05c-0.107,-1.84 -0.16,-3.69 -0.16,-5.55Z" style="fill:#65e0de;fill-rule:nonzero;"/>
    <circle cx="87.46" cy="134.17" r="10.17" style="fill:#f8ce82;"/>
    <circle cx="136.49" cy="140.2" r="10.17" style="fill:#f8ce82;"/>
    <circle cx="185.51" cy="140.2" r="10.17" style="fill:#f8ce82;"/>
    <circle cx="234.54" cy="134.17" r="10.17" style="fill:#f8ce82;"/>
    <circle cx="130.67" cy="40" r="27" style="fill:#65e0de;"/>
</g>
</svg>